  0
SECTION
  2
HEADER
  9
$ACADVER
  1
AC1014
  9
$HANDSEED
  5
FFFF
  9
$MEASUREMENT
 70
     1
  0
ENDSEC
  0
SECTION
  2
TABLES
  0
TABLE
  2
VPORT
  5
8
330
0
100
AcDbSymbolTable
 70
     4
  0
VPORT
  5
2E
330
8
100
AcDbSymbolTableRecord
100
AcDbViewportTableRecord
  2
*ACTIVE
 70
     0
 10
0.0
 20
0.0
 11
1.0
 21
1.0
 12
210.0
 22
148.5
 13
0.0
 23
0.0
 14
10.0
 24
10.0
 15
10.0
 25
10.0
 16
0.0
 26
0.0
 36
1.0
 17
0.0
 27
0.0
 37
0.0
 40
341.0
 41
1.24
 42
50.0
 43
0.0
 44
0.0
 50
0.0
 51
0.0
 71
     0
 72
   100
 73
     1
 74
     3
 75
     0
 76
     0
 77
     0
 78
     0
  0
ENDTAB
  0
TABLE
  2
LTYPE
  5
5
330
0
100
AcDbSymbolTable
 70
     1
  0
LTYPE
  5
14
330
5
100
AcDbSymbolTableRecord
100
AcDbLinetypeTableRecord
  2
BYBLOCK
 70
     0
  3

 72
    65
 73
     0
 40
0.0
  0
LTYPE
  5
15
330
5
100
AcDbSymbolTableRecord
100
AcDbLinetypeTableRecord
  2
BYLAYER
 70
     0
  3

 72
    65
 73
     0
 40
0.0
  0
LTYPE
  5
16
330
5
100
AcDbSymbolTableRecord
100
AcDbLinetypeTableRecord
  2
CONTINUOUS
 70
     0
  3
Solid line
 72
    65
 73
     0
 40
0.0
  0
ENDTAB
  0
TABLE
  2
LAYER
  5
2
100
AcDbSymbolTable
 70
2
  0
LAYER
  5
50
100
AcDbSymbolTableRecord
100
AcDbLayerTableRecord
  2
0
 70
0
  6
CONTINUOUS
  0
LAYER
  5
51
100
AcDbSymbolTableRecord
100
AcDbLayerTableRecord
  2
Layer_1
 70
0
  6
CONTINUOUS
  0
ENDTAB
  0
TABLE
  2
STYLE
  5
3
330
0
100
AcDbSymbolTable
 70
     1
  0
STYLE
  5
11
330
3
100
AcDbSymbolTableRecord
100
AcDbTextStyleTableRecord
  2
STANDARD
 70
     0
 40
0.0
 41
1.0
 50
0.0
 71
     0
 42
2.5
  3
txt
  4

  0
ENDTAB
  0
TABLE
  2
VIEW
  5
6
330
0
100
AcDbSymbolTable
 70
     0
  0
ENDTAB
  0
TABLE
  2
UCS
  5
7
330
0
100
AcDbSymbolTable
 70
     0
  0
ENDTAB
  0
TABLE
  2
APPID
  5
9
330
0
100
AcDbSymbolTable
 70
     2
  0
APPID
  5
12
330
9
100
AcDbSymbolTableRecord
100
AcDbRegAppTableRecord
  2
ACAD
 70
     0
  0
ENDTAB
  0
TABLE
  2
DIMSTYLE
  5
A
330
0
100
AcDbSymbolTable
 70
     1
  0
DIMSTYLE
105
27
330
A
100
AcDbSymbolTableRecord
100
AcDbDimStyleTableRecord
  2
ISO-25
 70
     0
  3

  4

  5

  6

  7

 40
1.0
 41
2.5
 42
0.625
 43
3.75
 44
1.25
 45
0.0
 46
0.0
 47
0.0
 48
0.0
140
2.5
141
2.5
142
0.0
143
0.03937007874016
144
1.0
145
0.0
146
1.0
147
0.625
 71
     0
 72
     0
 73
     0
 74
     0
 75
     0
 76
     0
 77
     1
 78
     8
170
     0
171
     3
172
     1
173
     0
174
     0
175
     0
176
     0
177
     0
178
     0
270
     2
271
     2
272
     2
273
     2
274
     3
340
11
275
     0
280
     0
281
     0
282
     0
283
     0
284
     8
285
     0
286
     0
287
     3
288
     0
  0
ENDTAB
  0
TABLE
  2
BLOCK_RECORD
  5
1
330
0
100
AcDbSymbolTable
 70
     1
  0
BLOCK_RECORD
  5
1F
330
1
100
AcDbSymbolTableRecord
100
AcDbBlockTableRecord
  2
*MODEL_SPACE
  0
BLOCK_RECORD
  5
1B
330
1
100
AcDbSymbolTableRecord
100
AcDbBlockTableRecord
  2
*PAPER_SPACE
  0
ENDTAB
  0
ENDSEC
  0
SECTION
  2
BLOCKS
  0
BLOCK
  5
20
330
1F
100
AcDbEntity
  8
0
100
AcDbBlockBegin
  2
*MODEL_SPACE
 70
     0
 10
0.0
 20
0.0
 30
0.0
  3
*MODEL_SPACE
  1

  0
ENDBLK
  5
21
330
1F
100
AcDbEntity
  8
0
100
AcDbBlockEnd
  0
BLOCK
  5
1C
330
1B
100
AcDbEntity
 67
     1
  8
0
100
AcDbBlockBegin
  2
*PAPER_SPACE
  1

  0
ENDBLK
  5
1D
330
1B
100
AcDbEntity
 67
     1
  8
0
100
AcDbBlockEnd
  0
ENDSEC
  0
SECTION
  2
ENTITIES
  0
SPLINE
  5
100
100
AcDbEntity
  8
Layer_1
 62
7
100
AcDbSpline
 70
8
 71
3
 72
8
 73
4
 74
0
 40
0
 40
0
 40
0
 40
0
 40
1
 40
1
 40
1
 40
1
 10
17.841490
 20
97.500003
 30
0.0
 10
17.841490
 20
96.654176
 30
0.0
 10
17.390247
 20
95.872600
 30
0.0
 10
16.657740
 20
95.449687
 30
0.0
  0
SPLINE
  5
101
100
AcDbEntity
  8
Layer_1
 62
7
100
AcDbSpline
 70
8
 71
3
 72
8
 73
4
 74
0
 40
0
 40
0
 40
0
 40
0
 40
1
 40
1
 40
1
 40
1
 10
16.657740
 20
95.449687
 30
0.0
 10
15.925233
 20
95.026774
 30
0.0
 10
15.022747
 20
95.026774
 30
0.0
 10
14.290240
 20
95.449687
 30
0.0
  0
SPLINE
  5
102
100
AcDbEntity
  8
Layer_1
 62
7
100
AcDbSpline
 70
8
 71
3
 72
8
 73
4
 74
0
 40
0
 40
0
 40
0
 40
0
 40
1
 40
1
 40
1
 40
1
 10
14.290240
 20
95.449687
 30
0.0
 10
13.557733
 20
95.872600
 30
0.0
 10
13.106490
 20
96.654176
 30
0.0
 10
13.106490
 20
97.500003
 30
0.0
  0
SPLINE
  5
103
100
AcDbEntity
  8
Layer_1
 62
7
100
AcDbSpline
 70
8
 71
3
 72
8
 73
4
 74
0
 40
0
 40
0
 40
0
 40
0
 40
1
 40
1
 40
1
 40
1
 10
13.106490
 20
97.500003
 30
0.0
 10
13.106490
 20
98.345829
 30
0.0
 10
13.557733
 20
99.127405
 30
0.0
 10
14.290240
 20
99.550318
 30
0.0
  0
SPLINE
  5
104
100
AcDbEntity
  8
Layer_1
 62
7
100
AcDbSpline
 70
8
 71
3
 72
8
 73
4
 74
0
 40
0
 40
0
 40
0
 40
0
 40
1
 40
1
 40
1
 40
1
 10
14.290240
 20
99.550318
 30
0.0
 10
15.022747
 20
99.973231
 30
0.0
 10
15.925233
 20
99.973231
 30
0.0
 10
16.657740
 20
99.550318
 30
0.0
  0
SPLINE
  5
105
100
AcDbEntity
  8
Layer_1
 62
7
100
AcDbSpline
 70
8
 71
3
 72
8
 73
4
 74
0
 40
0
 40
0
 40
0
 40
0
 40
1
 40
1
 40
1
 40
1
 10
16.657740
 20
99.550318
 30
0.0
 10
17.390247
 20
99.127405
 30
0.0
 10
17.841490
 20
98.345829
 30
0.0
 10
17.841490
 20
97.500003
 30
0.0
  0
SPLINE
  5
106
100
AcDbEntity
  8
Layer_1
 62
7
100
AcDbSpline
 70
8
 71
3
 72
8
 73
4
 74
0
 40
0
 40
0
 40
0
 40
0
 40
1
 40
1
 40
1
 40
1
 10
27.841490
 20
97.500003
 30
0.0
 10
27.841490
 20
96.654176
 30
0.0
 10
27.390247
 20
95.872600
 30
0.0
 10
26.657740
 20
95.449687
 30
0.0
  0
SPLINE
  5
107
100
AcDbEntity
  8
Layer_1
 62
7
100
AcDbSpline
 70
8
 71
3
 72
8
 73
4
 74
0
 40
0
 40
0
 40
0
 40
0
 40
1
 40
1
 40
1
 40
1
 10
26.657740
 20
95.449687
 30
0.0
 10
25.925233
 20
95.026774
 30
0.0
 10
25.022747
 20
95.026774
 30
0.0
 10
24.290240
 20
95.449687
 30
0.0
  0
SPLINE
  5
108
100
AcDbEntity
  8
Layer_1
 62
7
100
AcDbSpline
 70
8
 71
3
 72
8
 73
4
 74
0
 40
0
 40
0
 40
0
 40
0
 40
1
 40
1
 40
1
 40
1
 10
24.290240
 20
95.449687
 30
0.0
 10
23.557733
 20
95.872600
 30
0.0
 10
23.106490
 20
96.654176
 30
0.0
 10
23.106490
 20
97.500003
 30
0.0
  0
SPLINE
  5
109
100
AcDbEntity
  8
Layer_1
 62
7
100
AcDbSpline
 70
8
 71
3
 72
8
 73
4
 74
0
 40
0
 40
0
 40
0
 40
0
 40
1
 40
1
 40
1
 40
1
 10
23.106490
 20
97.500003
 30
0.0
 10
23.106490
 20
98.345829
 30
0.0
 10
23.557733
 20
99.127405
 30
0.0
 10
24.290240
 20
99.550318
 30
0.0
  0
SPLINE
  5
10a
100
AcDbEntity
  8
Layer_1
 62
7
100
AcDbSpline
 70
8
 71
3
 72
8
 73
4
 74
0
 40
0
 40
0
 40
0
 40
0
 40
1
 40
1
 40
1
 40
1
 10
24.290240
 20
99.550318
 30
0.0
 10
25.022747
 20
99.973231
 30
0.0
 10
25.925233
 20
99.973231
 30
0.0
 10
26.657740
 20
99.550318
 30
0.0
  0
SPLINE
  5
10b
100
AcDbEntity
  8
Layer_1
 62
7
100
AcDbSpline
 70
8
 71
3
 72
8
 73
4
 74
0
 40
0
 40
0
 40
0
 40
0
 40
1
 40
1
 40
1
 40
1
 10
26.657740
 20
99.550318
 30
0.0
 10
27.390247
 20
99.127405
 30
0.0
 10
27.841490
 20
98.345829
 30
0.0
 10
27.841490
 20
97.500003
 30
0.0
  0
LWPOLYLINE
  5
10c
100
AcDbEntity
  8
Layer_1
 62
7
100
AcDbPolyline
 90
1
 70
1
 10
17.841490
 20
97.500003
 30
0.0
  0
SPLINE
  5
10d
100
AcDbEntity
  8
Layer_1
 62
7
100
AcDbSpline
 70
8
 71
3
 72
8
 73
4
 74
0
 40
0
 40
0
 40
0
 40
0
 40
1
 40
1
 40
1
 40
1
 10
17.841490
 20
82.500002
 30
0.0
 10
17.841490
 20
81.654176
 30
0.0
 10
17.390247
 20
80.872600
 30
0.0
 10
16.657740
 20
80.449687
 30
0.0
  0
SPLINE
  5
10e
100
AcDbEntity
  8
Layer_1
 62
7
100
AcDbSpline
 70
8
 71
3
 72
8
 73
4
 74
0
 40
0
 40
0
 40
0
 40
0
 40
1
 40
1
 40
1
 40
1
 10
16.657740
 20
80.449687
 30
0.0
 10
15.925233
 20
80.026774
 30
0.0
 10
15.022747
 20
80.026774
 30
0.0
 10
14.290240
 20
80.449687
 30
0.0
  0
SPLINE
  5
10f
100
AcDbEntity
  8
Layer_1
 62
7
100
AcDbSpline
 70
8
 71
3
 72
8
 73
4
 74
0
 40
0
 40
0
 40
0
 40
0
 40
1
 40
1
 40
1
 40
1
 10
14.290240
 20
80.449687
 30
0.0
 10
13.557733
 20
80.872600
 30
0.0
 10
13.106490
 20
81.654176
 30
0.0
 10
13.106490
 20
82.500002
 30
0.0
  0
SPLINE
  5
110
100
AcDbEntity
  8
Layer_1
 62
7
100
AcDbSpline
 70
8
 71
3
 72
8
 73
4
 74
0
 40
0
 40
0
 40
0
 40
0
 40
1
 40
1
 40
1
 40
1
 10
13.106490
 20
82.500002
 30
0.0
 10
13.106490
 20
83.345829
 30
0.0
 10
13.557733
 20
84.127404
 30
0.0
 10
14.290240
 20
84.550318
 30
0.0
  0
SPLINE
  5
111
100
AcDbEntity
  8
Layer_1
 62
7
100
AcDbSpline
 70
8
 71
3
 72
8
 73
4
 74
0
 40
0
 40
0
 40
0
 40
0
 40
1
 40
1
 40
1
 40
1
 10
14.290240
 20
84.550318
 30
0.0
 10
15.022747
 20
84.973231
 30
0.0
 10
15.925233
 20
84.973231
 30
0.0
 10
16.657740
 20
84.550318
 30
0.0
  0
SPLINE
  5
112
100
AcDbEntity
  8
Layer_1
 62
7
100
AcDbSpline
 70
8
 71
3
 72
8
 73
4
 74
0
 40
0
 40
0
 40
0
 40
0
 40
1
 40
1
 40
1
 40
1
 10
16.657740
 20
84.550318
 30
0.0
 10
17.390247
 20
84.127404
 30
0.0
 10
17.841490
 20
83.345829
 30
0.0
 10
17.841490
 20
82.500002
 30
0.0
  0
LWPOLYLINE
  5
113
100
AcDbEntity
  8
Layer_1
 62
7
100
AcDbPolyline
 90
1
 70
1
 10
27.841490
 20
97.500003
 30
0.0
  0
SPLINE
  5
114
100
AcDbEntity
  8
Layer_1
 62
7
100
AcDbSpline
 70
8
 71
3
 72
8
 73
4
 74
0
 40
0
 40
0
 40
0
 40
0
 40
1
 40
1
 40
1
 40
1
 10
27.841490
 20
82.500002
 30
0.0
 10
27.841490
 20
81.654176
 30
0.0
 10
27.390247
 20
80.872600
 30
0.0
 10
26.657740
 20
80.449687
 30
0.0
  0
SPLINE
  5
115
100
AcDbEntity
  8
Layer_1
 62
7
100
AcDbSpline
 70
8
 71
3
 72
8
 73
4
 74
0
 40
0
 40
0
 40
0
 40
0
 40
1
 40
1
 40
1
 40
1
 10
26.657740
 20
80.449687
 30
0.0
 10
25.925233
 20
80.026774
 30
0.0
 10
25.022747
 20
80.026774
 30
0.0
 10
24.290240
 20
80.449687
 30
0.0
  0
SPLINE
  5
116
100
AcDbEntity
  8
Layer_1
 62
7
100
AcDbSpline
 70
8
 71
3
 72
8
 73
4
 74
0
 40
0
 40
0
 40
0
 40
0
 40
1
 40
1
 40
1
 40
1
 10
24.290240
 20
80.449687
 30
0.0
 10
23.557733
 20
80.872600
 30
0.0
 10
23.106490
 20
81.654176
 30
0.0
 10
23.106490
 20
82.500002
 30
0.0
  0
SPLINE
  5
117
100
AcDbEntity
  8
Layer_1
 62
7
100
AcDbSpline
 70
8
 71
3
 72
8
 73
4
 74
0
 40
0
 40
0
 40
0
 40
0
 40
1
 40
1
 40
1
 40
1
 10
23.106490
 20
82.500002
 30
0.0
 10
23.106490
 20
83.345829
 30
0.0
 10
23.557733
 20
84.127404
 30
0.0
 10
24.290240
 20
84.550318
 30
0.0
  0
SPLINE
  5
118
100
AcDbEntity
  8
Layer_1
 62
7
100
AcDbSpline
 70
8
 71
3
 72
8
 73
4
 74
0
 40
0
 40
0
 40
0
 40
0
 40
1
 40
1
 40
1
 40
1
 10
24.290240
 20
84.550318
 30
0.0
 10
25.022747
 20
84.973231
 30
0.0
 10
25.925233
 20
84.973231
 30
0.0
 10
26.657740
 20
84.550318
 30
0.0
  0
SPLINE
  5
119
100
AcDbEntity
  8
Layer_1
 62
7
100
AcDbSpline
 70
8
 71
3
 72
8
 73
4
 74
0
 40
0
 40
0
 40
0
 40
0
 40
1
 40
1
 40
1
 40
1
 10
26.657740
 20
84.550318
 30
0.0
 10
27.390247
 20
84.127404
 30
0.0
 10
27.841490
 20
83.345829
 30
0.0
 10
27.841490
 20
82.500002
 30
0.0
  0
LWPOLYLINE
  5
11a
100
AcDbEntity
  8
Layer_1
 62
7
100
AcDbPolyline
 90
1
 70
1
 10
17.841490
 20
82.500002
 30
0.0
  0
SPLINE
  5
11b
100
AcDbEntity
  8
Layer_1
 62
7
100
AcDbSpline
 70
8
 71
3
 72
8
 73
4
 74
0
 40
0
 40
0
 40
0
 40
0
 40
1
 40
1
 40
1
 40
1
 10
17.841490
 20
67.500002
 30
0.0
 10
17.841490
 20
66.654176
 30
0.0
 10
17.390247
 20
65.872600
 30
0.0
 10
16.657740
 20
65.449687
 30
0.0
  0
SPLINE
  5
11c
100
AcDbEntity
  8
Layer_1
 62
7
100
AcDbSpline
 70
8
 71
3
 72
8
 73
4
 74
0
 40
0
 40
0
 40
0
 40
0
 40
1
 40
1
 40
1
 40
1
 10
16.657740
 20
65.449687
 30
0.0
 10
15.925233
 20
65.026774
 30
0.0
 10
15.022747
 20
65.026774
 30
0.0
 10
14.290240
 20
65.449687
 30
0.0
  0
SPLINE
  5
11d
100
AcDbEntity
  8
Layer_1
 62
7
100
AcDbSpline
 70
8
 71
3
 72
8
 73
4
 74
0
 40
0
 40
0
 40
0
 40
0
 40
1
 40
1
 40
1
 40
1
 10
14.290240
 20
65.449687
 30
0.0
 10
13.557733
 20
65.872600
 30
0.0
 10
13.106490
 20
66.654176
 30
0.0
 10
13.106490
 20
67.500002
 30
0.0
  0
SPLINE
  5
11e
100
AcDbEntity
  8
Layer_1
 62
7
100
AcDbSpline
 70
8
 71
3
 72
8
 73
4
 74
0
 40
0
 40
0
 40
0
 40
0
 40
1
 40
1
 40
1
 40
1
 10
13.106490
 20
67.500002
 30
0.0
 10
13.106490
 20
68.345829
 30
0.0
 10
13.557733
 20
69.127404
 30
0.0
 10
14.290240
 20
69.550318
 30
0.0
  0
SPLINE
  5
11f
100
AcDbEntity
  8
Layer_1
 62
7
100
AcDbSpline
 70
8
 71
3
 72
8
 73
4
 74
0
 40
0
 40
0
 40
0
 40
0
 40
1
 40
1
 40
1
 40
1
 10
14.290240
 20
69.550318
 30
0.0
 10
15.022747
 20
69.973231
 30
0.0
 10
15.925233
 20
69.973231
 30
0.0
 10
16.657740
 20
69.550318
 30
0.0
  0
SPLINE
  5
120
100
AcDbEntity
  8
Layer_1
 62
7
100
AcDbSpline
 70
8
 71
3
 72
8
 73
4
 74
0
 40
0
 40
0
 40
0
 40
0
 40
1
 40
1
 40
1
 40
1
 10
16.657740
 20
69.550318
 30
0.0
 10
17.390247
 20
69.127404
 30
0.0
 10
17.841490
 20
68.345829
 30
0.0
 10
17.841490
 20
67.500002
 30
0.0
  0
LWPOLYLINE
  5
121
100
AcDbEntity
  8
Layer_1
 62
7
100
AcDbPolyline
 90
1
 70
1
 10
27.841490
 20
82.500002
 30
0.0
  0
SPLINE
  5
122
100
AcDbEntity
  8
Layer_1
 62
7
100
AcDbSpline
 70
8
 71
3
 72
8
 73
4
 74
0
 40
0
 40
0
 40
0
 40
0
 40
1
 40
1
 40
1
 40
1
 10
17.841490
 20
52.500002
 30
0.0
 10
17.841490
 20
51.654176
 30
0.0
 10
17.390247
 20
50.872600
 30
0.0
 10
16.657740
 20
50.449687
 30
0.0
  0
SPLINE
  5
123
100
AcDbEntity
  8
Layer_1
 62
7
100
AcDbSpline
 70
8
 71
3
 72
8
 73
4
 74
0
 40
0
 40
0
 40
0
 40
0
 40
1
 40
1
 40
1
 40
1
 10
16.657740
 20
50.449687
 30
0.0
 10
15.925233
 20
50.026774
 30
0.0
 10
15.022747
 20
50.026774
 30
0.0
 10
14.290240
 20
50.449687
 30
0.0
  0
SPLINE
  5
124
100
AcDbEntity
  8
Layer_1
 62
7
100
AcDbSpline
 70
8
 71
3
 72
8
 73
4
 74
0
 40
0
 40
0
 40
0
 40
0
 40
1
 40
1
 40
1
 40
1
 10
14.290240
 20
50.449687
 30
0.0
 10
13.557733
 20
50.872600
 30
0.0
 10
13.106490
 20
51.654176
 30
0.0
 10
13.106490
 20
52.500002
 30
0.0
  0
SPLINE
  5
125
100
AcDbEntity
  8
Layer_1
 62
7
100
AcDbSpline
 70
8
 71
3
 72
8
 73
4
 74
0
 40
0
 40
0
 40
0
 40
0
 40
1
 40
1
 40
1
 40
1
 10
13.106490
 20
52.500002
 30
0.0
 10
13.106490
 20
53.345829
 30
0.0
 10
13.557733
 20
54.127404
 30
0.0
 10
14.290240
 20
54.550318
 30
0.0
  0
SPLINE
  5
126
100
AcDbEntity
  8
Layer_1
 62
7
100
AcDbSpline
 70
8
 71
3
 72
8
 73
4
 74
0
 40
0
 40
0
 40
0
 40
0
 40
1
 40
1
 40
1
 40
1
 10
14.290240
 20
54.550318
 30
0.0
 10
15.022747
 20
54.973231
 30
0.0
 10
15.925233
 20
54.973231
 30
0.0
 10
16.657740
 20
54.550318
 30
0.0
  0
SPLINE
  5
127
100
AcDbEntity
  8
Layer_1
 62
7
100
AcDbSpline
 70
8
 71
3
 72
8
 73
4
 74
0
 40
0
 40
0
 40
0
 40
0
 40
1
 40
1
 40
1
 40
1
 10
16.657740
 20
54.550318
 30
0.0
 10
17.390247
 20
54.127404
 30
0.0
 10
17.841490
 20
53.345829
 30
0.0
 10
17.841490
 20
52.500002
 30
0.0
  0
LWPOLYLINE
  5
128
100
AcDbEntity
  8
Layer_1
 62
7
100
AcDbPolyline
 90
1
 70
1
 10
17.841490
 20
67.500002
 30
0.0
  0
SPLINE
  5
129
100
AcDbEntity
  8
Layer_1
 62
7
100
AcDbSpline
 70
8
 71
3
 72
8
 73
4
 74
0
 40
0
 40
0
 40
0
 40
0
 40
1
 40
1
 40
1
 40
1
 10
17.841490
 20
37.500002
 30
0.0
 10
17.841490
 20
36.654176
 30
0.0
 10
17.390247
 20
35.872600
 30
0.0
 10
16.657740
 20
35.449687
 30
0.0
  0
SPLINE
  5
12a
100
AcDbEntity
  8
Layer_1
 62
7
100
AcDbSpline
 70
8
 71
3
 72
8
 73
4
 74
0
 40
0
 40
0
 40
0
 40
0
 40
1
 40
1
 40
1
 40
1
 10
16.657740
 20
35.449687
 30
0.0
 10
15.925233
 20
35.026774
 30
0.0
 10
15.022747
 20
35.026774
 30
0.0
 10
14.290240
 20
35.449687
 30
0.0
  0
SPLINE
  5
12b
100
AcDbEntity
  8
Layer_1
 62
7
100
AcDbSpline
 70
8
 71
3
 72
8
 73
4
 74
0
 40
0
 40
0
 40
0
 40
0
 40
1
 40
1
 40
1
 40
1
 10
14.290240
 20
35.449687
 30
0.0
 10
13.557733
 20
35.872600
 30
0.0
 10
13.106490
 20
36.654176
 30
0.0
 10
13.106490
 20
37.500002
 30
0.0
  0
SPLINE
  5
12c
100
AcDbEntity
  8
Layer_1
 62
7
100
AcDbSpline
 70
8
 71
3
 72
8
 73
4
 74
0
 40
0
 40
0
 40
0
 40
0
 40
1
 40
1
 40
1
 40
1
 10
13.106490
 20
37.500002
 30
0.0
 10
13.106490
 20
38.345829
 30
0.0
 10
13.557733
 20
39.127404
 30
0.0
 10
14.290240
 20
39.550318
 30
0.0
  0
SPLINE
  5
12d
100
AcDbEntity
  8
Layer_1
 62
7
100
AcDbSpline
 70
8
 71
3
 72
8
 73
4
 74
0
 40
0
 40
0
 40
0
 40
0
 40
1
 40
1
 40
1
 40
1
 10
14.290240
 20
39.550318
 30
0.0
 10
15.022747
 20
39.973231
 30
0.0
 10
15.925233
 20
39.973231
 30
0.0
 10
16.657740
 20
39.550318
 30
0.0
  0
SPLINE
  5
12e
100
AcDbEntity
  8
Layer_1
 62
7
100
AcDbSpline
 70
8
 71
3
 72
8
 73
4
 74
0
 40
0
 40
0
 40
0
 40
0
 40
1
 40
1
 40
1
 40
1
 10
16.657740
 20
39.550318
 30
0.0
 10
17.390247
 20
39.127404
 30
0.0
 10
17.841490
 20
38.345829
 30
0.0
 10
17.841490
 20
37.500002
 30
0.0
  0
LWPOLYLINE
  5
12f
100
AcDbEntity
  8
Layer_1
 62
7
100
AcDbPolyline
 90
1
 70
1
 10
17.841490
 20
52.500002
 30
0.0
  0
SPLINE
  5
130
100
AcDbEntity
  8
Layer_1
 62
7
100
AcDbSpline
 70
8
 71
3
 72
8
 73
4
 74
0
 40
0
 40
0
 40
0
 40
0
 40
1
 40
1
 40
1
 40
1
 10
27.841490
 20
37.500002
 30
0.0
 10
27.841490
 20
36.654176
 30
0.0
 10
27.390247
 20
35.872600
 30
0.0
 10
26.657740
 20
35.449687
 30
0.0
  0
SPLINE
  5
131
100
AcDbEntity
  8
Layer_1
 62
7
100
AcDbSpline
 70
8
 71
3
 72
8
 73
4
 74
0
 40
0
 40
0
 40
0
 40
0
 40
1
 40
1
 40
1
 40
1
 10
26.657740
 20
35.449687
 30
0.0
 10
25.925233
 20
35.026774
 30
0.0
 10
25.022747
 20
35.026774
 30
0.0
 10
24.290240
 20
35.449687
 30
0.0
  0
SPLINE
  5
132
100
AcDbEntity
  8
Layer_1
 62
7
100
AcDbSpline
 70
8
 71
3
 72
8
 73
4
 74
0
 40
0
 40
0
 40
0
 40
0
 40
1
 40
1
 40
1
 40
1
 10
24.290240
 20
35.449687
 30
0.0
 10
23.557733
 20
35.872600
 30
0.0
 10
23.106490
 20
36.654176
 30
0.0
 10
23.106490
 20
37.500002
 30
0.0
  0
SPLINE
  5
133
100
AcDbEntity
  8
Layer_1
 62
7
100
AcDbSpline
 70
8
 71
3
 72
8
 73
4
 74
0
 40
0
 40
0
 40
0
 40
0
 40
1
 40
1
 40
1
 40
1
 10
23.106490
 20
37.500002
 30
0.0
 10
23.106490
 20
38.345829
 30
0.0
 10
23.557733
 20
39.127404
 30
0.0
 10
24.290240
 20
39.550318
 30
0.0
  0
SPLINE
  5
134
100
AcDbEntity
  8
Layer_1
 62
7
100
AcDbSpline
 70
8
 71
3
 72
8
 73
4
 74
0
 40
0
 40
0
 40
0
 40
0
 40
1
 40
1
 40
1
 40
1
 10
24.290240
 20
39.550318
 30
0.0
 10
25.022747
 20
39.973231
 30
0.0
 10
25.925233
 20
39.973231
 30
0.0
 10
26.657740
 20
39.550318
 30
0.0
  0
SPLINE
  5
135
100
AcDbEntity
  8
Layer_1
 62
7
100
AcDbSpline
 70
8
 71
3
 72
8
 73
4
 74
0
 40
0
 40
0
 40
0
 40
0
 40
1
 40
1
 40
1
 40
1
 10
26.657740
 20
39.550318
 30
0.0
 10
27.390247
 20
39.127404
 30
0.0
 10
27.841490
 20
38.345829
 30
0.0
 10
27.841490
 20
37.500002
 30
0.0
  0
LWPOLYLINE
  5
136
100
AcDbEntity
  8
Layer_1
 62
7
100
AcDbPolyline
 90
1
 70
1
 10
17.841490
 20
37.500002
 30
0.0
  0
SPLINE
  5
137
100
AcDbEntity
  8
Layer_1
 62
7
100
AcDbSpline
 70
8
 71
3
 72
8
 73
4
 74
0
 40
0
 40
0
 40
0
 40
0
 40
1
 40
1
 40
1
 40
1
 10
17.841490
 20
22.500002
 30
0.0
 10
17.841490
 20
21.654176
 30
0.0
 10
17.390247
 20
20.872600
 30
0.0
 10
16.657740
 20
20.449687
 30
0.0
  0
SPLINE
  5
138
100
AcDbEntity
  8
Layer_1
 62
7
100
AcDbSpline
 70
8
 71
3
 72
8
 73
4
 74
0
 40
0
 40
0
 40
0
 40
0
 40
1
 40
1
 40
1
 40
1
 10
16.657740
 20
20.449687
 30
0.0
 10
15.925233
 20
20.026774
 30
0.0
 10
15.022747
 20
20.026774
 30
0.0
 10
14.290240
 20
20.449687
 30
0.0
  0
SPLINE
  5
139
100
AcDbEntity
  8
Layer_1
 62
7
100
AcDbSpline
 70
8
 71
3
 72
8
 73
4
 74
0
 40
0
 40
0
 40
0
 40
0
 40
1
 40
1
 40
1
 40
1
 10
14.290240
 20
20.449687
 30
0.0
 10
13.557733
 20
20.872600
 30
0.0
 10
13.106490
 20
21.654176
 30
0.0
 10
13.106490
 20
22.500002
 30
0.0
  0
SPLINE
  5
13a
100
AcDbEntity
  8
Layer_1
 62
7
100
AcDbSpline
 70
8
 71
3
 72
8
 73
4
 74
0
 40
0
 40
0
 40
0
 40
0
 40
1
 40
1
 40
1
 40
1
 10
13.106490
 20
22.500002
 30
0.0
 10
13.106490
 20
23.345829
 30
0.0
 10
13.557733
 20
24.127404
 30
0.0
 10
14.290240
 20
24.550318
 30
0.0
  0
SPLINE
  5
13b
100
AcDbEntity
  8
Layer_1
 62
7
100
AcDbSpline
 70
8
 71
3
 72
8
 73
4
 74
0
 40
0
 40
0
 40
0
 40
0
 40
1
 40
1
 40
1
 40
1
 10
14.290240
 20
24.550318
 30
0.0
 10
15.022747
 20
24.973231
 30
0.0
 10
15.925233
 20
24.973231
 30
0.0
 10
16.657740
 20
24.550318
 30
0.0
  0
SPLINE
  5
13c
100
AcDbEntity
  8
Layer_1
 62
7
100
AcDbSpline
 70
8
 71
3
 72
8
 73
4
 74
0
 40
0
 40
0
 40
0
 40
0
 40
1
 40
1
 40
1
 40
1
 10
16.657740
 20
24.550318
 30
0.0
 10
17.390247
 20
24.127404
 30
0.0
 10
17.841490
 20
23.345829
 30
0.0
 10
17.841490
 20
22.500002
 30
0.0
  0
LWPOLYLINE
  5
13d
100
AcDbEntity
  8
Layer_1
 62
7
100
AcDbPolyline
 90
1
 70
1
 10
27.841490
 20
37.500002
 30
0.0
  0
SPLINE
  5
13e
100
AcDbEntity
  8
Layer_1
 62
7
100
AcDbSpline
 70
8
 71
3
 72
8
 73
4
 74
0
 40
0
 40
0
 40
0
 40
0
 40
1
 40
1
 40
1
 40
1
 10
17.841490
 20
7.500002
 30
0.0
 10
17.841490
 20
6.654176
 30
0.0
 10
17.390247
 20
5.872600
 30
0.0
 10
16.657740
 20
5.449687
 30
0.0
  0
SPLINE
  5
13f
100
AcDbEntity
  8
Layer_1
 62
7
100
AcDbSpline
 70
8
 71
3
 72
8
 73
4
 74
0
 40
0
 40
0
 40
0
 40
0
 40
1
 40
1
 40
1
 40
1
 10
16.657740
 20
5.449687
 30
0.0
 10
15.925233
 20
5.026774
 30
0.0
 10
15.022747
 20
5.026774
 30
0.0
 10
14.290240
 20
5.449687
 30
0.0
  0
SPLINE
  5
140
100
AcDbEntity
  8
Layer_1
 62
7
100
AcDbSpline
 70
8
 71
3
 72
8
 73
4
 74
0
 40
0
 40
0
 40
0
 40
0
 40
1
 40
1
 40
1
 40
1
 10
14.290240
 20
5.449687
 30
0.0
 10
13.557733
 20
5.872600
 30
0.0
 10
13.106490
 20
6.654176
 30
0.0
 10
13.106490
 20
7.500002
 30
0.0
  0
SPLINE
  5
141
100
AcDbEntity
  8
Layer_1
 62
7
100
AcDbSpline
 70
8
 71
3
 72
8
 73
4
 74
0
 40
0
 40
0
 40
0
 40
0
 40
1
 40
1
 40
1
 40
1
 10
13.106490
 20
7.500002
 30
0.0
 10
13.106490
 20
8.345829
 30
0.0
 10
13.557733
 20
9.127404
 30
0.0
 10
14.290240
 20
9.550318
 30
0.0
  0
SPLINE
  5
142
100
AcDbEntity
  8
Layer_1
 62
7
100
AcDbSpline
 70
8
 71
3
 72
8
 73
4
 74
0
 40
0
 40
0
 40
0
 40
0
 40
1
 40
1
 40
1
 40
1
 10
14.290240
 20
9.550318
 30
0.0
 10
15.022747
 20
9.973231
 30
0.0
 10
15.925233
 20
9.973231
 30
0.0
 10
16.657740
 20
9.550318
 30
0.0
  0
SPLINE
  5
143
100
AcDbEntity
  8
Layer_1
 62
7
100
AcDbSpline
 70
8
 71
3
 72
8
 73
4
 74
0
 40
0
 40
0
 40
0
 40
0
 40
1
 40
1
 40
1
 40
1
 10
16.657740
 20
9.550318
 30
0.0
 10
17.390247
 20
9.127404
 30
0.0
 10
17.841490
 20
8.345829
 30
0.0
 10
17.841490
 20
7.500002
 30
0.0
  0
LWPOLYLINE
  5
144
100
AcDbEntity
  8
Layer_1
 62
7
100
AcDbPolyline
 90
1
 70
1
 10
17.841490
 20
22.500002
 30
0.0
  0
SPLINE
  5
145
100
AcDbEntity
  8
Layer_1
 62
7
100
AcDbSpline
 70
8
 71
3
 72
8
 73
4
 74
0
 40
0
 40
0
 40
0
 40
0
 40
1
 40
1
 40
1
 40
1
 10
68.867501
 20
101.500002
 30
0.0
 10
68.867501
 20
100.296910
 30
0.0
 10
68.225659
 20
99.185208
 30
0.0
 10
67.183751
 20
98.583662
 30
0.0
  0
SPLINE
  5
146
100
AcDbEntity
  8
Layer_1
 62
7
100
AcDbSpline
 70
8
 71
3
 72
8
 73
4
 74
0
 40
0
 40
0
 40
0
 40
0
 40
1
 40
1
 40
1
 40
1
 10
67.183751
 20
98.583662
 30
0.0
 10
66.141842
 20
97.982116
 30
0.0
 10
64.858159
 20
97.982116
 30
0.0
 10
63.816251
 20
98.583662
 30
0.0
  0
SPLINE
  5
147
100
AcDbEntity
  8
Layer_1
 62
7
100
AcDbSpline
 70
8
 71
3
 72
8
 73
4
 74
0
 40
0
 40
0
 40
0
 40
0
 40
1
 40
1
 40
1
 40
1
 10
63.816251
 20
98.583662
 30
0.0
 10
62.774342
 20
99.185208
 30
0.0
 10
62.132500
 20
100.296910
 30
0.0
 10
62.132500
 20
101.500002
 30
0.0
  0
SPLINE
  5
148
100
AcDbEntity
  8
Layer_1
 62
7
100
AcDbSpline
 70
8
 71
3
 72
8
 73
4
 74
0
 40
0
 40
0
 40
0
 40
0
 40
1
 40
1
 40
1
 40
1
 10
62.132500
 20
101.500002
 30
0.0
 10
62.132500
 20
102.703094
 30
0.0
 10
62.774342
 20
103.814797
 30
0.0
 10
63.816251
 20
104.416343
 30
0.0
  0
SPLINE
  5
149
100
AcDbEntity
  8
Layer_1
 62
7
100
AcDbSpline
 70
8
 71
3
 72
8
 73
4
 74
0
 40
0
 40
0
 40
0
 40
0
 40
1
 40
1
 40
1
 40
1
 10
63.816251
 20
104.416343
 30
0.0
 10
64.858159
 20
105.017889
 30
0.0
 10
66.141842
 20
105.017889
 30
0.0
 10
67.183751
 20
104.416343
 30
0.0
  0
SPLINE
  5
14a
100
AcDbEntity
  8
Layer_1
 62
7
100
AcDbSpline
 70
8
 71
3
 72
8
 73
4
 74
0
 40
0
 40
0
 40
0
 40
0
 40
1
 40
1
 40
1
 40
1
 10
67.183751
 20
104.416343
 30
0.0
 10
68.225659
 20
103.814797
 30
0.0
 10
68.867501
 20
102.703094
 30
0.0
 10
68.867501
 20
101.500002
 30
0.0
  0
LWPOLYLINE
  5
14b
100
AcDbEntity
  8
Layer_1
 62
7
100
AcDbPolyline
 90
1
 70
1
 10
17.841490
 20
7.500002
 30
0.0
  0
SPLINE
  5
14c
100
AcDbEntity
  8
Layer_1
 62
7
100
AcDbSpline
 70
8
 71
3
 72
8
 73
4
 74
0
 40
0
 40
0
 40
0
 40
0
 40
1
 40
1
 40
1
 40
1
 10
93.867501
 20
101.500002
 30
0.0
 10
93.867501
 20
100.296910
 30
0.0
 10
93.225659
 20
99.185208
 30
0.0
 10
92.183751
 20
98.583662
 30
0.0
  0
SPLINE
  5
14d
100
AcDbEntity
  8
Layer_1
 62
7
100
AcDbSpline
 70
8
 71
3
 72
8
 73
4
 74
0
 40
0
 40
0
 40
0
 40
0
 40
1
 40
1
 40
1
 40
1
 10
92.183751
 20
98.583662
 30
0.0
 10
91.141842
 20
97.982116
 30
0.0
 10
89.858159
 20
97.982116
 30
0.0
 10
88.816251
 20
98.583662
 30
0.0
  0
SPLINE
  5
14e
100
AcDbEntity
  8
Layer_1
 62
7
100
AcDbSpline
 70
8
 71
3
 72
8
 73
4
 74
0
 40
0
 40
0
 40
0
 40
0
 40
1
 40
1
 40
1
 40
1
 10
88.816251
 20
98.583662
 30
0.0
 10
87.774342
 20
99.185208
 30
0.0
 10
87.132500
 20
100.296910
 30
0.0
 10
87.132500
 20
101.500002
 30
0.0
  0
SPLINE
  5
14f
100
AcDbEntity
  8
Layer_1
 62
7
100
AcDbSpline
 70
8
 71
3
 72
8
 73
4
 74
0
 40
0
 40
0
 40
0
 40
0
 40
1
 40
1
 40
1
 40
1
 10
87.132500
 20
101.500002
 30
0.0
 10
87.132500
 20
102.703094
 30
0.0
 10
87.774342
 20
103.814797
 30
0.0
 10
88.816251
 20
104.416343
 30
0.0
  0
SPLINE
  5
150
100
AcDbEntity
  8
Layer_1
 62
7
100
AcDbSpline
 70
8
 71
3
 72
8
 73
4
 74
0
 40
0
 40
0
 40
0
 40
0
 40
1
 40
1
 40
1
 40
1
 10
88.816251
 20
104.416343
 30
0.0
 10
89.858159
 20
105.017889
 30
0.0
 10
91.141842
 20
105.017889
 30
0.0
 10
92.183751
 20
104.416343
 30
0.0
  0
SPLINE
  5
151
100
AcDbEntity
  8
Layer_1
 62
7
100
AcDbSpline
 70
8
 71
3
 72
8
 73
4
 74
0
 40
0
 40
0
 40
0
 40
0
 40
1
 40
1
 40
1
 40
1
 10
92.183751
 20
104.416343
 30
0.0
 10
93.225659
 20
103.814797
 30
0.0
 10
93.867501
 20
102.703094
 30
0.0
 10
93.867501
 20
101.500002
 30
0.0
  0
LWPOLYLINE
  5
152
100
AcDbEntity
  8
Layer_1
 62
7
100
AcDbPolyline
 90
1
 70
1
 10
68.867501
 20
101.500002
 30
0.0
  0
SPLINE
  5
153
100
AcDbEntity
  8
Layer_1
 62
7
100
AcDbSpline
 70
8
 71
3
 72
8
 73
4
 74
0
 40
0
 40
0
 40
0
 40
0
 40
1
 40
1
 40
1
 40
1
 10
68.867501
 20
86.500002
 30
0.0
 10
68.867501
 20
85.296910
 30
0.0
 10
68.225659
 20
84.185208
 30
0.0
 10
67.183751
 20
83.583662
 30
0.0
  0
SPLINE
  5
154
100
AcDbEntity
  8
Layer_1
 62
7
100
AcDbSpline
 70
8
 71
3
 72
8
 73
4
 74
0
 40
0
 40
0
 40
0
 40
0
 40
1
 40
1
 40
1
 40
1
 10
67.183751
 20
83.583662
 30
0.0
 10
66.141842
 20
82.982116
 30
0.0
 10
64.858159
 20
82.982116
 30
0.0
 10
63.816251
 20
83.583662
 30
0.0
  0
SPLINE
  5
155
100
AcDbEntity
  8
Layer_1
 62
7
100
AcDbSpline
 70
8
 71
3
 72
8
 73
4
 74
0
 40
0
 40
0
 40
0
 40
0
 40
1
 40
1
 40
1
 40
1
 10
63.816251
 20
83.583662
 30
0.0
 10
62.774342
 20
84.185208
 30
0.0
 10
62.132500
 20
85.296910
 30
0.0
 10
62.132500
 20
86.500002
 30
0.0
  0
SPLINE
  5
156
100
AcDbEntity
  8
Layer_1
 62
7
100
AcDbSpline
 70
8
 71
3
 72
8
 73
4
 74
0
 40
0
 40
0
 40
0
 40
0
 40
1
 40
1
 40
1
 40
1
 10
62.132500
 20
86.500002
 30
0.0
 10
62.132500
 20
87.703094
 30
0.0
 10
62.774342
 20
88.814797
 30
0.0
 10
63.816251
 20
89.416343
 30
0.0
  0
SPLINE
  5
157
100
AcDbEntity
  8
Layer_1
 62
7
100
AcDbSpline
 70
8
 71
3
 72
8
 73
4
 74
0
 40
0
 40
0
 40
0
 40
0
 40
1
 40
1
 40
1
 40
1
 10
63.816251
 20
89.416343
 30
0.0
 10
64.858159
 20
90.017889
 30
0.0
 10
66.141842
 20
90.017889
 30
0.0
 10
67.183751
 20
89.416343
 30
0.0
  0
SPLINE
  5
158
100
AcDbEntity
  8
Layer_1
 62
7
100
AcDbSpline
 70
8
 71
3
 72
8
 73
4
 74
0
 40
0
 40
0
 40
0
 40
0
 40
1
 40
1
 40
1
 40
1
 10
67.183751
 20
89.416343
 30
0.0
 10
68.225659
 20
88.814797
 30
0.0
 10
68.867501
 20
87.703094
 30
0.0
 10
68.867501
 20
86.500002
 30
0.0
  0
LWPOLYLINE
  5
159
100
AcDbEntity
  8
Layer_1
 62
7
100
AcDbPolyline
 90
1
 70
1
 10
93.867501
 20
101.500002
 30
0.0
  0
SPLINE
  5
15a
100
AcDbEntity
  8
Layer_1
 62
7
100
AcDbSpline
 70
8
 71
3
 72
8
 73
4
 74
0
 40
0
 40
0
 40
0
 40
0
 40
1
 40
1
 40
1
 40
1
 10
93.867501
 20
86.500002
 30
0.0
 10
93.867501
 20
85.296910
 30
0.0
 10
93.225659
 20
84.185208
 30
0.0
 10
92.183751
 20
83.583662
 30
0.0
  0
SPLINE
  5
15b
100
AcDbEntity
  8
Layer_1
 62
7
100
AcDbSpline
 70
8
 71
3
 72
8
 73
4
 74
0
 40
0
 40
0
 40
0
 40
0
 40
1
 40
1
 40
1
 40
1
 10
92.183751
 20
83.583662
 30
0.0
 10
91.141842
 20
82.982116
 30
0.0
 10
89.858159
 20
82.982116
 30
0.0
 10
88.816251
 20
83.583662
 30
0.0
  0
SPLINE
  5
15c
100
AcDbEntity
  8
Layer_1
 62
7
100
AcDbSpline
 70
8
 71
3
 72
8
 73
4
 74
0
 40
0
 40
0
 40
0
 40
0
 40
1
 40
1
 40
1
 40
1
 10
88.816251
 20
83.583662
 30
0.0
 10
87.774342
 20
84.185208
 30
0.0
 10
87.132500
 20
85.296910
 30
0.0
 10
87.132500
 20
86.500002
 30
0.0
  0
SPLINE
  5
15d
100
AcDbEntity
  8
Layer_1
 62
7
100
AcDbSpline
 70
8
 71
3
 72
8
 73
4
 74
0
 40
0
 40
0
 40
0
 40
0
 40
1
 40
1
 40
1
 40
1
 10
87.132500
 20
86.500002
 30
0.0
 10
87.132500
 20
87.703094
 30
0.0
 10
87.774342
 20
88.814797
 30
0.0
 10
88.816251
 20
89.416343
 30
0.0
  0
SPLINE
  5
15e
100
AcDbEntity
  8
Layer_1
 62
7
100
AcDbSpline
 70
8
 71
3
 72
8
 73
4
 74
0
 40
0
 40
0
 40
0
 40
0
 40
1
 40
1
 40
1
 40
1
 10
88.816251
 20
89.416343
 30
0.0
 10
89.858159
 20
90.017889
 30
0.0
 10
91.141842
 20
90.017889
 30
0.0
 10
92.183751
 20
89.416343
 30
0.0
  0
SPLINE
  5
15f
100
AcDbEntity
  8
Layer_1
 62
7
100
AcDbSpline
 70
8
 71
3
 72
8
 73
4
 74
0
 40
0
 40
0
 40
0
 40
0
 40
1
 40
1
 40
1
 40
1
 10
92.183751
 20
89.416343
 30
0.0
 10
93.225659
 20
88.814797
 30
0.0
 10
93.867501
 20
87.703094
 30
0.0
 10
93.867501
 20
86.500002
 30
0.0
  0
LWPOLYLINE
  5
160
100
AcDbEntity
  8
Layer_1
 62
7
100
AcDbPolyline
 90
1
 70
1
 10
68.867501
 20
86.500002
 30
0.0
  0
SPLINE
  5
161
100
AcDbEntity
  8
Layer_1
 62
7
100
AcDbSpline
 70
8
 71
3
 72
8
 73
4
 74
0
 40
0
 40
0
 40
0
 40
0
 40
1
 40
1
 40
1
 40
1
 10
68.867500
 20
71.500002
 30
0.0
 10
68.867500
 20
70.296910
 30
0.0
 10
68.225658
 20
69.185208
 30
0.0
 10
67.183750
 20
68.583662
 30
0.0
  0
SPLINE
  5
162
100
AcDbEntity
  8
Layer_1
 62
7
100
AcDbSpline
 70
8
 71
3
 72
8
 73
4
 74
0
 40
0
 40
0
 40
0
 40
0
 40
1
 40
1
 40
1
 40
1
 10
67.183750
 20
68.583662
 30
0.0
 10
66.141842
 20
67.982116
 30
0.0
 10
64.858158
 20
67.982116
 30
0.0
 10
63.816250
 20
68.583662
 30
0.0
  0
SPLINE
  5
163
100
AcDbEntity
  8
Layer_1
 62
7
100
AcDbSpline
 70
8
 71
3
 72
8
 73
4
 74
0
 40
0
 40
0
 40
0
 40
0
 40
1
 40
1
 40
1
 40
1
 10
63.816250
 20
68.583662
 30
0.0
 10
62.774342
 20
69.185208
 30
0.0
 10
62.132500
 20
70.296910
 30
0.0
 10
62.132500
 20
71.500002
 30
0.0
  0
SPLINE
  5
164
100
AcDbEntity
  8
Layer_1
 62
7
100
AcDbSpline
 70
8
 71
3
 72
8
 73
4
 74
0
 40
0
 40
0
 40
0
 40
0
 40
1
 40
1
 40
1
 40
1
 10
62.132500
 20
71.500002
 30
0.0
 10
62.132500
 20
72.703094
 30
0.0
 10
62.774342
 20
73.814797
 30
0.0
 10
63.816250
 20
74.416343
 30
0.0
  0
SPLINE
  5
165
100
AcDbEntity
  8
Layer_1
 62
7
100
AcDbSpline
 70
8
 71
3
 72
8
 73
4
 74
0
 40
0
 40
0
 40
0
 40
0
 40
1
 40
1
 40
1
 40
1
 10
63.816250
 20
74.416343
 30
0.0
 10
64.858158
 20
75.017889
 30
0.0
 10
66.141842
 20
75.017889
 30
0.0
 10
67.183750
 20
74.416343
 30
0.0
  0
SPLINE
  5
166
100
AcDbEntity
  8
Layer_1
 62
7
100
AcDbSpline
 70
8
 71
3
 72
8
 73
4
 74
0
 40
0
 40
0
 40
0
 40
0
 40
1
 40
1
 40
1
 40
1
 10
67.183750
 20
74.416343
 30
0.0
 10
68.225658
 20
73.814797
 30
0.0
 10
68.867500
 20
72.703094
 30
0.0
 10
68.867500
 20
71.500002
 30
0.0
  0
LWPOLYLINE
  5
167
100
AcDbEntity
  8
Layer_1
 62
7
100
AcDbPolyline
 90
1
 70
1
 10
93.867501
 20
86.500002
 30
0.0
  0
SPLINE
  5
168
100
AcDbEntity
  8
Layer_1
 62
7
100
AcDbSpline
 70
8
 71
3
 72
8
 73
4
 74
0
 40
0
 40
0
 40
0
 40
0
 40
1
 40
1
 40
1
 40
1
 10
96.367500
 20
52.456793
 30
0.0
 10
96.367500
 20
49.216263
 30
0.0
 10
93.740531
 20
46.589294
 30
0.0
 10
90.500000
 20
46.589294
 30
0.0
  0
SPLINE
  5
169
100
AcDbEntity
  8
Layer_1
 62
7
100
AcDbSpline
 70
8
 71
3
 72
8
 73
4
 74
0
 40
0
 40
0
 40
0
 40
0
 40
1
 40
1
 40
1
 40
1
 10
90.500000
 20
46.589294
 30
0.0
 10
87.259470
 20
46.589294
 30
0.0
 10
84.632500
 20
49.216263
 30
0.0
 10
84.632500
 20
52.456793
 30
0.0
  0
SPLINE
  5
16a
100
AcDbEntity
  8
Layer_1
 62
7
100
AcDbSpline
 70
8
 71
3
 72
8
 73
4
 74
0
 40
0
 40
0
 40
0
 40
0
 40
1
 40
1
 40
1
 40
1
 10
84.632500
 20
52.456793
 30
0.0
 10
84.632500
 20
54.553049
 30
0.0
 10
85.750839
 20
56.490069
 30
0.0
 10
87.566250
 20
57.538197
 30
0.0
  0
SPLINE
  5
16b
100
AcDbEntity
  8
Layer_1
 62
7
100
AcDbSpline
 70
8
 71
3
 72
8
 73
4
 74
0
 40
0
 40
0
 40
0
 40
0
 40
1
 40
1
 40
1
 40
1
 10
87.566250
 20
57.538197
 30
0.0
 10
89.381661
 20
58.586325
 30
0.0
 10
91.618339
 20
58.586325
 30
0.0
 10
93.433750
 20
57.538197
 30
0.0
  0
SPLINE
  5
16c
100
AcDbEntity
  8
Layer_1
 62
7
100
AcDbSpline
 70
8
 71
3
 72
8
 73
4
 74
0
 40
0
 40
0
 40
0
 40
0
 40
1
 40
1
 40
1
 40
1
 10
93.433750
 20
57.538197
 30
0.0
 10
95.249161
 20
56.490069
 30
0.0
 10
96.367500
 20
54.553049
 30
0.0
 10
96.367500
 20
52.456793
 30
0.0
  0
LWPOLYLINE
  5
16d
100
AcDbEntity
  8
Layer_1
 62
7
100
AcDbPolyline
 90
1
 70
1
 10
68.867500
 20
71.500002
 30
0.0
  0
SPLINE
  5
16e
100
AcDbEntity
  8
Layer_1
 62
7
100
AcDbSpline
 70
8
 71
3
 72
8
 73
4
 74
0
 40
0
 40
0
 40
0
 40
0
 40
1
 40
1
 40
1
 40
1
 10
70.367500
 20
28.000002
 30
0.0
 10
70.367500
 20
26.261012
 30
0.0
 10
69.439760
 20
24.654119
 30
0.0
 10
67.933750
 20
23.784624
 30
0.0
  0
SPLINE
  5
16f
100
AcDbEntity
  8
Layer_1
 62
7
100
AcDbSpline
 70
8
 71
3
 72
8
 73
4
 74
0
 40
0
 40
0
 40
0
 40
0
 40
1
 40
1
 40
1
 40
1
 10
67.933750
 20
23.784624
 30
0.0
 10
66.427740
 20
22.915129
 30
0.0
 10
64.572260
 20
22.915129
 30
0.0
 10
63.066250
 20
23.784624
 30
0.0
  0
SPLINE
  5
170
100
AcDbEntity
  8
Layer_1
 62
7
100
AcDbSpline
 70
8
 71
3
 72
8
 73
4
 74
0
 40
0
 40
0
 40
0
 40
0
 40
1
 40
1
 40
1
 40
1
 10
63.066250
 20
23.784624
 30
0.0
 10
61.560241
 20
24.654119
 30
0.0
 10
60.632500
 20
26.261012
 30
0.0
 10
60.632500
 20
28.000002
 30
0.0
  0
SPLINE
  5
171
100
AcDbEntity
  8
Layer_1
 62
7
100
AcDbSpline
 70
8
 71
3
 72
8
 73
4
 74
0
 40
0
 40
0
 40
0
 40
0
 40
1
 40
1
 40
1
 40
1
 10
60.632500
 20
28.000002
 30
0.0
 10
60.632500
 20
29.738993
 30
0.0
 10
61.560241
 20
31.345886
 30
0.0
 10
63.066250
 20
32.215381
 30
0.0
  0
SPLINE
  5
172
100
AcDbEntity
  8
Layer_1
 62
7
100
AcDbSpline
 70
8
 71
3
 72
8
 73
4
 74
0
 40
0
 40
0
 40
0
 40
0
 40
1
 40
1
 40
1
 40
1
 10
63.066250
 20
32.215381
 30
0.0
 10
64.572260
 20
33.084876
 30
0.0
 10
66.427740
 20
33.084876
 30
0.0
 10
67.933750
 20
32.215381
 30
0.0
  0
SPLINE
  5
173
100
AcDbEntity
  8
Layer_1
 62
7
100
AcDbSpline
 70
8
 71
3
 72
8
 73
4
 74
0
 40
0
 40
0
 40
0
 40
0
 40
1
 40
1
 40
1
 40
1
 10
67.933750
 20
32.215381
 30
0.0
 10
69.439760
 20
31.345886
 30
0.0
 10
70.367500
 20
29.738993
 30
0.0
 10
70.367500
 20
28.000002
 30
0.0
  0
LWPOLYLINE
  5
174
100
AcDbEntity
  8
Layer_1
 62
7
100
AcDbPolyline
 90
1
 70
1
 10
96.367500
 20
52.456793
 30
0.0
  0
SPLINE
  5
175
100
AcDbEntity
  8
Layer_1
 62
7
100
AcDbSpline
 70
8
 71
3
 72
8
 73
4
 74
0
 40
0
 40
0
 40
0
 40
0
 40
1
 40
1
 40
1
 40
1
 10
67.367500
 20
49.000002
 30
0.0
 10
67.367500
 20
48.332809
 30
0.0
 10
67.011557
 20
47.716297
 30
0.0
 10
66.433750
 20
47.382700
 30
0.0
  0
SPLINE
  5
176
100
AcDbEntity
  8
Layer_1
 62
7
100
AcDbSpline
 70
8
 71
3
 72
8
 73
4
 74
0
 40
0
 40
0
 40
0
 40
0
 40
1
 40
1
 40
1
 40
1
 10
66.433750
 20
47.382700
 30
0.0
 10
65.855944
 20
47.049103
 30
0.0
 10
65.144057
 20
47.049103
 30
0.0
 10
64.566250
 20
47.382700
 30
0.0
  0
SPLINE
  5
177
100
AcDbEntity
  8
Layer_1
 62
7
100
AcDbSpline
 70
8
 71
3
 72
8
 73
4
 74
0
 40
0
 40
0
 40
0
 40
0
 40
1
 40
1
 40
1
 40
1
 10
64.566250
 20
47.382700
 30
0.0
 10
63.988444
 20
47.716297
 30
0.0
 10
63.632500
 20
48.332809
 30
0.0
 10
63.632500
 20
49.000002
 30
0.0
  0
SPLINE
  5
178
100
AcDbEntity
  8
Layer_1
 62
7
100
AcDbSpline
 70
8
 71
3
 72
8
 73
4
 74
0
 40
0
 40
0
 40
0
 40
0
 40
1
 40
1
 40
1
 40
1
 10
63.632500
 20
49.000002
 30
0.0
 10
63.632500
 20
49.667196
 30
0.0
 10
63.988444
 20
50.283708
 30
0.0
 10
64.566250
 20
50.617305
 30
0.0
  0
SPLINE
  5
179
100
AcDbEntity
  8
Layer_1
 62
7
100
AcDbSpline
 70
8
 71
3
 72
8
 73
4
 74
0
 40
0
 40
0
 40
0
 40
0
 40
1
 40
1
 40
1
 40
1
 10
64.566250
 20
50.617305
 30
0.0
 10
65.144057
 20
50.950901
 30
0.0
 10
65.855944
 20
50.950901
 30
0.0
 10
66.433750
 20
50.617305
 30
0.0
  0
SPLINE
  5
17a
100
AcDbEntity
  8
Layer_1
 62
7
100
AcDbSpline
 70
8
 71
3
 72
8
 73
4
 74
0
 40
0
 40
0
 40
0
 40
0
 40
1
 40
1
 40
1
 40
1
 10
66.433750
 20
50.617305
 30
0.0
 10
67.011557
 20
50.283708
 30
0.0
 10
67.367500
 20
49.667196
 30
0.0
 10
67.367500
 20
49.000002
 30
0.0
  0
LWPOLYLINE
  5
17b
100
AcDbEntity
  8
Layer_1
 62
7
100
AcDbPolyline
 90
1
 70
1
 10
70.367500
 20
28.000002
 30
0.0
  0
SPLINE
  5
17c
100
AcDbEntity
  8
Layer_1
 62
7
100
AcDbSpline
 70
8
 71
3
 72
8
 73
4
 74
0
 40
0
 40
0
 40
0
 40
0
 40
1
 40
1
 40
1
 40
1
 10
67.367500
 20
7.000002
 30
0.0
 10
67.367500
 20
6.332809
 30
0.0
 10
67.011557
 20
5.716297
 30
0.0
 10
66.433750
 20
5.382700
 30
0.0
  0
SPLINE
  5
17d
100
AcDbEntity
  8
Layer_1
 62
7
100
AcDbSpline
 70
8
 71
3
 72
8
 73
4
 74
0
 40
0
 40
0
 40
0
 40
0
 40
1
 40
1
 40
1
 40
1
 10
66.433750
 20
5.382700
 30
0.0
 10
65.855944
 20
5.049103
 30
0.0
 10
65.144057
 20
5.049103
 30
0.0
 10
64.566250
 20
5.382700
 30
0.0
  0
SPLINE
  5
17e
100
AcDbEntity
  8
Layer_1
 62
7
100
AcDbSpline
 70
8
 71
3
 72
8
 73
4
 74
0
 40
0
 40
0
 40
0
 40
0
 40
1
 40
1
 40
1
 40
1
 10
64.566250
 20
5.382700
 30
0.0
 10
63.988444
 20
5.716297
 30
0.0
 10
63.632500
 20
6.332809
 30
0.0
 10
63.632500
 20
7.000002
 30
0.0
  0
SPLINE
  5
17f
100
AcDbEntity
  8
Layer_1
 62
7
100
AcDbSpline
 70
8
 71
3
 72
8
 73
4
 74
0
 40
0
 40
0
 40
0
 40
0
 40
1
 40
1
 40
1
 40
1
 10
63.632500
 20
7.000002
 30
0.0
 10
63.632500
 20
7.667196
 30
0.0
 10
63.988444
 20
8.283708
 30
0.0
 10
64.566250
 20
8.617305
 30
0.0
  0
SPLINE
  5
180
100
AcDbEntity
  8
Layer_1
 62
7
100
AcDbSpline
 70
8
 71
3
 72
8
 73
4
 74
0
 40
0
 40
0
 40
0
 40
0
 40
1
 40
1
 40
1
 40
1
 10
64.566250
 20
8.617305
 30
0.0
 10
65.144057
 20
8.950901
 30
0.0
 10
65.855944
 20
8.950901
 30
0.0
 10
66.433750
 20
8.617305
 30
0.0
  0
SPLINE
  5
181
100
AcDbEntity
  8
Layer_1
 62
7
100
AcDbSpline
 70
8
 71
3
 72
8
 73
4
 74
0
 40
0
 40
0
 40
0
 40
0
 40
1
 40
1
 40
1
 40
1
 10
66.433750
 20
8.617305
 30
0.0
 10
67.011557
 20
8.283708
 30
0.0
 10
67.367500
 20
7.667196
 30
0.0
 10
67.367500
 20
7.000002
 30
0.0
  0
LWPOLYLINE
  5
182
100
AcDbEntity
  8
Layer_1
 62
7
100
AcDbPolyline
 90
1
 70
1
 10
67.367500
 20
49.000002
 30
0.0
  0
LWPOLYLINE
  5
183
100
AcDbEntity
  8
Layer_1
 62
7
100
AcDbPolyline
 90
1
 70
1
 10
67.367500
 20
7.000002
 30
0.0
  0
ENDSEC
  0
SECTION
  2
OBJECTS
  0
DICTIONARY
  5
C
330
0
100
AcDbDictionary
  3
ACAD_GROUP
350
D
  3
ACAD_MLINESTYLE
350
17
  0
DICTIONARY
  5
D
330
C
100
AcDbDictionary
  0
DICTIONARY
  5
1A
330
C
100
AcDbDictionary
  0
DICTIONARY
  5
17
330
C
100
AcDbDictionary
  3
STANDARD
350
18
  0
DICTIONARY
  5
19
330
C
100
AcDbDictionary
  0
ENDSEC
  0
EOF
